<svg width="188" height="231" viewBox="0 0 188 231" fill="none" xmlns="http://www.w3.org/2000/svg">
<mask id="path-1-inside-1_2001_2" fill="white">
<path d="M93.5576 0C145.228 0 187.115 39.9948 187.115 89.3311C187.115 138.667 130.033 190.761 90.8779 231C53.1734 191.879 0 138.668 0 89.3311C0.000273107 39.9949 41.8873 0.000114633 93.5576 0Z"/>
</mask>
<path d="M93.5576 0C145.228 0 187.115 39.9948 187.115 89.3311C187.115 138.667 130.033 190.761 90.8779 231C53.1734 191.879 0 138.668 0 89.3311C0.000273107 39.9949 41.8873 0.000114633 93.5576 0Z" fill="#D58035"/>
<path d="M93.5576 0L93.5576 -10L93.5576 -10L93.5576 0ZM187.115 89.3311L197.115 89.3311L197.115 89.331L187.115 89.3311ZM90.8779 231L83.6777 237.94L90.8436 245.375L98.0449 237.974L90.8779 231ZM0 89.3311L-10 89.331V89.3311H0ZM93.5576 0V10C140.146 10 177.115 45.9483 177.115 89.3311L187.115 89.3311L197.115 89.331C197.115 34.0414 150.31 -10 93.5576 -10V0ZM187.115 89.3311H177.115C177.115 110.424 164.742 133.482 145.838 157.372C127.093 181.062 103.641 203.545 83.711 224.026L90.8779 231L98.0449 237.974C117.27 218.217 141.937 194.533 161.522 169.782C180.948 145.232 197.115 117.575 197.115 89.3311H187.115ZM90.8779 231L98.0781 224.06C79.0657 204.334 56.8737 181.771 39.3413 158.052C21.6465 134.114 10 110.67 10 89.3311H0H-10C-10 117.329 4.94019 145.159 23.2582 169.94C41.7387 194.942 64.9857 218.545 83.6777 237.94L90.8779 231ZM0 89.3311L10 89.3311C10.0002 45.9484 46.9695 10.0001 93.5576 10L93.5576 0L93.5576 -10C36.8051 -9.99987 -9.99969 34.0414 -10 89.331L0 89.3311Z" fill="#6C4C20" mask="url(#path-1-inside-1_2001_2)"/>
<path d="M93.0898 59.516C112.864 59.516 128.788 75.3317 128.788 94.7103C128.788 114.089 112.864 129.904 93.0898 129.904C73.316 129.903 57.3928 114.089 57.3926 94.7103C57.3926 75.3319 73.3159 59.5162 93.0898 59.516Z" fill="white" stroke="#6C4C20" stroke-width="10"/>
</svg>
